<svg width="154.573242" height="48.000000" viewBox="0 0 154.573 48" fill="none" xmlns="http://www.w3.org/2000/svg" xmlns:xlink="http://www.w3.org/1999/xlink">
  <defs/>
  <path id="MOEX logo" d="M0 48L0 18L29.91 18L29.91 0L77.77 0L77.77 48L0 48ZM27.7 33.02C27.7 27.84 30.69 24.3 35.78 24.3C40.91 24.3 43.86 27.84 43.86 33.02C43.86 38.21 40.86 41.88 35.78 41.88C30.69 41.88 27.7 38.21 27.7 33.02ZM96.23 32C94.01 32 92.72 30.38 92.72 28.27C92.72 26.18 94.01 24.57 96.23 24.57C98.46 24.57 99.76 26.13 99.76 28.27C99.76 30.38 98.46 32 96.23 32ZM105.52 29.49L106.85 29.66C106.54 31.18 105.29 32 103.82 32C101.54 32 100.48 30.38 100.48 28.27C100.48 26.18 101.58 24.57 103.86 24.57C105.25 24.57 106.28 25.24 106.77 26.49L105.46 27.02C105.16 26.26 104.62 25.78 103.77 25.78C102.3 25.78 101.86 26.94 101.86 28.24C101.86 29.57 102.4 30.74 103.86 30.74C104.76 30.78 105.29 30.33 105.52 29.49ZM117.38 32C115.14 32 113.9 30.38 113.9 28.27C113.9 26.18 115.14 24.57 117.38 24.57C119.61 24.57 120.9 26.13 120.9 28.27C120.9 30.38 119.61 32 117.38 32ZM133.08 29.49L134.41 29.66C134.1 31.18 132.85 32 131.38 32C129.1 32 128.03 30.38 128.03 28.27C128.03 26.18 129.16 24.57 131.42 24.57C132.81 24.57 133.84 25.24 134.33 26.49L133.03 27.02C132.72 26.26 132.18 25.78 131.33 25.78C129.86 25.78 129.42 26.94 129.42 28.24C129.42 29.57 129.96 30.74 131.42 30.74C132.37 30.78 132.85 30.33 133.08 29.49ZM84.23 31.9L84.23 24.7L86.78 24.7L88.04 30.65L88.21 30.65L89.33 24.7L91.86 24.7L91.86 31.85L90.53 31.85L90.53 25.96L90.36 25.96L89.23 31.9L86.96 31.9L85.76 25.96L85.58 25.96L85.58 31.9L84.23 31.9ZM107.88 31.85L107.88 24.7L109.21 24.7L109.21 27.48L109.93 27.48L112.12 24.7L113.77 24.7L111.09 28.01L113.85 31.85L112.21 31.85L109.93 28.73L109.21 28.73L109.21 31.85L107.88 31.85ZM121.8 31.85L121.8 24.7L125.05 24.7C126.21 24.7 127.14 25.2 127.14 26.45C127.14 27.3 126.84 27.91 126.08 28.2C126.88 28.41 127.33 29.04 127.33 29.89C127.33 31.18 126.38 31.85 125.14 31.85L121.8 31.85ZM135.49 31.85L135.49 24.7L136.82 24.7L136.82 27.48L137.54 27.48L139.72 24.7L141.37 24.7L138.74 28.06L141.5 31.85L139.85 31.85L137.58 28.73L136.86 28.73L136.86 31.85L135.49 31.85ZM141.69 31.85L144.09 24.7L146.05 24.7L148.46 31.85L147.03 31.85L146.46 30.02L143.6 30.02L143.02 31.85L141.69 31.85ZM15.61 38.52L16.28 38.52L19.41 24.72L25.11 24.72L25.11 41.38L22.13 41.38L22.13 27.62L21.5 27.62L18.46 41.38L13.42 41.38L10.43 27.62L9.81 27.62L9.81 41.48L6.86 41.48L6.86 24.76L12.53 24.76L15.61 38.52ZM62.19 41.42L58.98 41.42L63.98 32.58L59.34 24.72L62.55 24.72L66 30.65L69.38 24.72L72.59 24.72L67.73 32.66L72.9 41.42L69.69 41.42L65.81 34.81L62.19 41.42ZM149.09 31.85L149.39 29.93C149.49 29.3 149.8 28.86 150.38 28.6C149.62 28.27 149.13 27.57 149.13 26.75C149.13 25.42 150.38 24.74 151.58 24.74L154.57 24.74L154.57 31.9L153.24 31.9L153.24 29.13L151.67 29.13C151.05 29.13 150.78 29.35 150.69 30.02L150.38 31.85L149.09 31.85ZM56.89 41.42L46.45 41.42L46.45 24.76L56.89 24.76L56.89 27.66L49.47 27.66L49.47 31.6L55.86 31.6L55.86 34.37L49.47 34.37L49.47 38.52L56.89 38.52L56.89 41.42ZM96.28 30.78C97.76 30.78 98.38 29.66 98.38 28.27C98.38 26.89 97.66 25.82 96.19 25.82C94.72 25.82 94.14 26.94 94.14 28.27C94.1 29.62 94.77 30.78 96.28 30.78ZM117.38 30.78C118.85 30.78 119.48 29.66 119.48 28.27C119.48 26.89 118.76 25.82 117.29 25.82C115.82 25.82 115.24 26.94 115.24 28.27C115.24 29.62 115.9 30.78 117.38 30.78ZM123.13 27.61L124.88 27.61C125.45 27.61 125.89 27.34 125.89 26.75C125.89 26.13 125.49 25.91 124.88 25.91L123.13 25.91L123.13 27.61ZM144 28.82L146.05 28.82L145.17 25.96L144.85 25.96L144 28.82ZM153.33 27.91L153.33 25.96L151.77 25.96C151.05 25.96 150.56 26.18 150.56 26.94C150.56 27.7 151.05 27.91 151.77 27.91L153.33 27.91ZM30.78 33.06C30.78 36.37 32.4 38.93 35.78 38.93C39.17 38.93 40.78 36.37 40.78 33.06C40.78 29.76 39.17 27.21 35.78 27.21C32.34 27.21 30.78 29.76 30.78 33.06ZM123.13 30.65L124.96 30.65C125.58 30.65 126.08 30.42 126.08 29.75C126.08 29.09 125.62 28.82 124.96 28.82L123.13 28.82L123.13 30.65ZM84.23 41.46L84.23 34.26L89.46 34.26L89.46 35.52L85.58 35.52L85.58 36.96L87.49 36.96C88.91 36.96 89.77 37.57 89.77 39.14C89.77 40.61 88.87 41.46 87.49 41.46L84.23 41.46ZM90.62 41.42L90.62 34.26L91.96 34.26L91.96 40.21L92.18 40.21L94.01 34.26L96.5 34.26L96.5 41.42L95.17 41.42L95.17 35.48L94.94 35.48L93.16 41.42L90.62 41.42ZM97.76 41.42L97.76 34.26L100.74 34.26C102.21 34.26 103.24 35.16 103.24 36.68C103.24 38.2 102.21 39.09 100.74 39.09L99.09 39.09L99.09 41.42L97.76 41.42ZM103.29 41.42L105.52 37.62L103.33 34.26L104.93 34.26L106.58 37.09L107.12 37.09L107.12 34.26L108.46 34.26L108.46 37.09L109 37.09L110.6 34.26L112.21 34.26L110.02 37.62L112.25 41.42L110.69 41.42L109 38.29L108.46 38.29L108.46 41.42L107.12 41.42L107.12 38.29L106.58 38.29L104.89 41.42L103.29 41.42ZM112.56 41.42L114.97 34.26L116.93 34.26L119.34 41.42L117.92 41.42L117.33 39.58L114.48 39.58L113.9 41.42L112.56 41.42ZM99.09 37.89L100.74 37.89C101.45 37.89 101.9 37.35 101.9 36.64C101.9 35.91 101.5 35.48 100.74 35.48L99.09 35.48L99.09 37.89ZM114.88 38.38L116.93 38.38L116.04 35.52L115.73 35.52L114.88 38.38ZM85.58 40.17L87.32 40.17C87.98 40.17 88.48 39.81 88.48 39.14C88.48 38.48 87.98 38.16 87.32 38.16L85.58 38.16L85.58 40.17Z" fill="#FF0508" fill-opacity="1.000000" fill-rule="evenodd"/>
</svg>
